HIERARCHY
ROOT hip
{
  OFFSET 0 0 0
  CHANNELS 6 Xposition Yposition Zposition Zrotation Yrotation Xrotation
  JOINT abdomen
  {
    OFFSET 0 20.6881 -0.73152
    CHANNELS 3 Zrotation Xrotation Yrotation
    JOINT chest
    {
      OFFSET 0 11.7043 -0.48768
      CHANNELS 3 Zrotation Xrotation Yrotation
      JOINT neck
      {
        OFFSET 0 22.1894 -2.19456
        CHANNELS 3 Zrotation Xrotation Yrotation
        JOINT head
        {
          OFFSET -0.24384 7.07133 1.2192
          CHANNELS 3 Zrotation Xrotation Yrotation
          JOINT leftEye
          {
            OFFSET 4.14528 8.04674 8.04672
            CHANNELS 3 Zrotation Xrotation Yrotation
            End Site
            {
              OFFSET 1 0 0
            }
          }
          JOINT rightEye
          {
            OFFSET -3.6576 8.04674 8.04672
            CHANNELS 3 Zrotation Xrotation Yrotation
            End Site
            {
              OFFSET 1 0 0
            }
          }
        }
      }
      JOINT rCollar
      {
        OFFSET -2.68224 19.2634 -4.8768
        CHANNELS 3 Zrotation Xrotation Yrotation
        JOINT rShldr
        {
          OFFSET -8.77824 -1.95073 1.46304
          CHANNELS 3 Zrotation Xrotation Yrotation
          JOINT rForeArm
          {
            OFFSET -28.1742 -1.7115 0.48768
            CHANNELS 3 Zrotation Xrotation Yrotation
            JOINT rHand
            {
              OFFSET -22.5879 0.773209 7.07136
              CHANNELS 3 Zrotation Xrotation Yrotation
              JOINT rThumb1
              {
                OFFSET -1.2192 -0.487915 3.41376
                CHANNELS 3 Zrotation Xrotation Yrotation
                JOINT rThumb2
                {
                  OFFSET -3.37035 -0.52449 3.41376
                  CHANNELS 3 Zrotation Xrotation Yrotation
                  End Site
                  {
                    OFFSET -1.78271 -1.18214 1.43049
                  }
                }
              }
              JOINT rIndex1
              {
                OFFSET -7.75947 0.938293 5.60832
                CHANNELS 3 Zrotation Xrotation Yrotation
                JOINT rIndex2
                {
                  OFFSET -2.54057 -0.884171 1.56538
                  CHANNELS 3 Zrotation Xrotation Yrotation
                  End Site
                  {
                    OFFSET -1.62519 -0.234802 1.16502
                  }
                }
              }
              JOINT rMid1
              {
                OFFSET -8.24714 1.18213 3.41376
                CHANNELS 3 Zrotation Xrotation Yrotation
                JOINT rMid2
                {
                  OFFSET -3.10165 -0.590103 1.0647
                  CHANNELS 3 Zrotation Xrotation Yrotation
                  End Site
                  {
                    OFFSET -2.48547 -0.328903 0.83742
                  }
                }
              }
              JOINT rRing1
              {
                OFFSET -8.82822 0.546677 1.51678
                CHANNELS 3 Zrotation Xrotation Yrotation
                JOINT rRing2
                {
                  OFFSET -2.60934 -0.819778 -0.0198488
                  CHANNELS 3 Zrotation Xrotation Yrotation
                  End Site
                  {
                    OFFSET -2.33842 -0.294052 0.168128
                  }
                }
              }
              JOINT rPinky1
              {
                OFFSET -8.27202 -0.0477905 -0.4584
                CHANNELS 3 Zrotation Xrotation Yrotation
                JOINT rPinky2
                {
                  OFFSET -1.82734 -0.647385 -0.700984
                  CHANNELS 3 Zrotation Xrotation Yrotation
                  End Site
                  {
                    OFFSET -1.69225 -0.51767 -0.607171
                  }
                }
              }
            }
          }
        }
      }
      JOINT lCollar
      {
        OFFSET 2.68224 19.2634 -4.8768
        CHANNELS 3 Zrotation Xrotation Yrotation
        JOINT lShldr
        {
          OFFSET 8.77824 -1.95073 1.46304
          CHANNELS 3 Zrotation Xrotation Yrotation
          JOINT lForeArm
          {
            OFFSET 28.1742 -1.7115 0.48768
            CHANNELS 3 Zrotation Xrotation Yrotation
            JOINT lHand
            {
              OFFSET 22.5879 0.773209 7.07136
              CHANNELS 3 Zrotation Xrotation Yrotation
              JOINT lThumb1
              {
                OFFSET 1.2192 -0.487915 3.41376
                CHANNELS 3 Zrotation Xrotation Yrotation
                JOINT lThumb2
                {
                  OFFSET 3.37035 -0.52449 3.41376
                  CHANNELS 3 Zrotation Xrotation Yrotation
                  End Site
                  {
                    OFFSET 1.78271 -1.18214 1.43049
                  }
                }
              }
              JOINT lIndex1
              {
                OFFSET 7.75947 0.938293 5.60832
                CHANNELS 3 Zrotation Xrotation Yrotation
                JOINT lIndex2
                {
                  OFFSET 2.54057 -0.884171 1.56538
                  CHANNELS 3 Zrotation Xrotation Yrotation
                  End Site
                  {
                    OFFSET 1.62519 -0.234802 1.16502
                  }
                }
              }
              JOINT lMid1
              {
                OFFSET 8.24714 1.18213 3.41376
                CHANNELS 3 Zrotation Xrotation Yrotation
                JOINT lMid2
                {
                  OFFSET 3.10165 -0.590103 1.0647
                  CHANNELS 3 Zrotation Xrotation Yrotation
                  End Site
                  {
                    OFFSET 2.48547 -0.328903 0.83742
                  }
                }
              }
              JOINT lRing1
              {
                OFFSET 8.82822 0.546677 1.51678
                CHANNELS 3 Zrotation Xrotation Yrotation
                JOINT lRing2
                {
                  OFFSET 2.60934 -0.819778 -0.0198488
                  CHANNELS 3 Zrotation Xrotation Yrotation
                  End Site
                  {
                    OFFSET 2.33842 -0.294052 0.168128
                  }
                }
              }
              JOINT lPinky1
              {
                OFFSET 8.27202 -0.0477905 -0.4584
                CHANNELS 3 Zrotation Xrotation Yrotation
                JOINT lPinky2
                {
                  OFFSET 1.82734 -0.647385 -0.700984
                  CHANNELS 3 Zrotation Xrotation Yrotation
                  End Site
                  {
                    OFFSET 1.69225 -0.51767 -0.607171
                  }
                }
              }
            }
          }
        }
      }
    }
  }
  JOINT rButtock
  {
    OFFSET -8.77824 4.35084 1.2192
    CHANNELS 3 Zrotation Xrotation Yrotation
    JOINT rThigh
    {
      OFFSET 0 -1.70687 -2.19456
      CHANNELS 3 Zrotation Xrotation Yrotation
      JOINT rShin
      {
        OFFSET 0 -36.8199 0.73152
        CHANNELS 3 Zrotation Xrotation Yrotation
        JOINT rFoot
        {
          OFFSET 0.73152 -45.1104 -5.12064
          CHANNELS 3 Zrotation Xrotation Yrotation
          End Site
          {
            OFFSET -1.1221 -3.69964 12.103
          }
        }
      }
    }
  }
  JOINT lButtock
  {
    OFFSET 8.77824 4.35084 1.2192
    CHANNELS 3 Zrotation Xrotation Yrotation
    JOINT lThigh
    {
      OFFSET 0 -1.70687 -2.19456
      CHANNELS 3 Zrotation Xrotation Yrotation
      JOINT lShin
      {
        OFFSET 0 -36.8199 0.73152
        CHANNELS 3 Zrotation Xrotation Yrotation
        JOINT lFoot
        {
          OFFSET -0.73152 -45.1104 -5.12064
          CHANNELS 3 Zrotation Xrotation Yrotation
          End Site
          {
            OFFSET 1.1221 -3.69964 12.103
          }
        }
      }
    }
  }
}
MOTION
Frames:	5
Frame Time:	0.03333
-0.24116000081448874 51.66260004043579 0.019999999858555384 -13.460585594177246 -25.797100067138672 11.528397560119629 10.851109504699707 4.362175464630127 2.003024101257324 3.2908880710601807 -6.059637546539307 0.6034249067306519 -3.6703295707702637 10.818998336791992 -0.8127807974815369 5.881043434143066 -18.328899383544922 -0.34933072328567505 -0.0 0.0 -0.0 -0.0 0.0 -0.0 -0.0 0.0 -0.0 103.2179946899414 50.81330108642578 -52.12580108642578 -27.305593490600586 -43.13860321044922 89.7566909790039 -3.853818416595459 -47.349796295166016 -8.775822639465332 -0.0 0.0 -0.0 -0.0 0.0 -0.0 -0.0 0.0 -0.0 7.730876445770264 5.474895000457764 0.41732463240623474 -0.0 0.0 -0.0 2.9054994583129883 0.9650753736495972 0.10300876200199127 -0.0 0.0 -0.0 10.278595924377441 0.7317469120025635 0.026285577565431595 -0.0 0.0 -0.0 2.221662759780884 -0.7335850596427917 -0.20831839740276337 -0.0 0.0 -0.0 -40.740196228027344 28.54999542236328 -38.31629943847656 16.380483627319336 -9.045576095581055 -30.480093002319336 1.085255742073059 28.190996170043945 -4.320102691650391 -0.0 0.0 -0.0 -0.0 0.0 -0.0 -0.0 0.0 -0.0 -7.730876445770264 5.474895000457764 -0.41732463240623474 -0.0 0.0 -0.0 -2.9054994583129883 0.9650753736495972 -0.10300876200199127 -0.0 0.0 -0.0 -10.278595924377441 0.7317469120025635 -0.026285577565431595 -0.0 0.0 -0.0 -2.221662759780884 -0.7335850596427917 0.20831839740276337 -0.0 0.0 -0.0 -10.319306373596191 14.404693603515625 0.043192338198423386 0.1036112979054451 29.72069549560547 2.4228298664093018 -11.528892517089844 -18.496803283691406 -36.43879318237305 -0.0 0.0 -0.0 82.20690155029297 -52.614097595214844 76.79279327392578 7.273539066314697 81.94693756103516 -6.858514785766602 -0.059914328157901764 -5.010939121246338 -3.367486000061035
-0.23046000083013496 51.635897159576416 0.006999999823165126 -13.447702407836914 -25.86640167236328 11.561492919921875 10.905498504638672 4.3956522941589355 2.123466730117798 3.208070755004883 -6.086049556732178 0.635151743888855 -3.400707244873047 10.94267463684082 -0.012742405757308006 5.84929895401001 -18.608779907226562 1.204545497894287 -0.0 0.0 -0.0 -0.0 0.0 -0.0 -0.0 0.0 -0.0 103.2560043334961 50.59328079223633 -52.12510681152344 -27.303701400756836 -43.14459991455078 89.76819610595703 -3.8527514934539795 -47.3450927734375 -8.774375915527344 -0.0 0.0 -0.0 -0.0 0.0 -0.0 -0.0 0.0 -0.0 7.730876445770264 5.474895000457764 0.41732463240623474 -0.0 0.0 -0.0 2.9054994583129883 0.9650753736495972 0.10300876200199127 -0.0 0.0 -0.0 10.278595924377441 0.7317469120025635 0.026285577565431595 -0.0 0.0 -0.0 2.221662759780884 -0.7335850596427917 -0.20831839740276337 -0.0 0.0 -0.0 -40.79720687866211 28.464599609375 -38.337196350097656 16.391788482666016 -9.056339263916016 -30.50409698486328 1.1007487773895264 28.19165802001953 -4.324215888977051 -0.0 0.0 -0.0 -0.0 0.0 -0.0 -0.0 0.0 -0.0 -7.730876445770264 5.474895000457764 -0.41732463240623474 -0.0 0.0 -0.0 -2.9054994583129883 0.9650753736495972 -0.10300876200199127 -0.0 0.0 -0.0 -10.278595924377441 0.7317469120025635 -0.026285577565431595 -0.0 0.0 -0.0 -2.221662759780884 -0.7335850596427917 0.20831839740276337 -0.0 0.0 -0.0 -10.340685844421387 14.254002571105957 0.077353335916996 0.10265439748764038 29.84919548034668 2.4305241107940674 -11.544464111328125 -18.396408081054688 -36.61579513549805 -0.0 0.0 -0.0 82.23239135742188 -52.703487396240234 76.63959503173828 7.24561882019043 81.94932556152344 -6.856204986572266 0.022183993831276894 -5.079862117767334 -2.870576858520508
-0.21665000044777116 51.59569978713989 -0.012000000788248144 -13.407103538513184 -25.91560173034668 11.613698959350586 10.92131519317627 4.451003074645996 2.2396254539489746 3.1172099113464355 -6.132281303405762 0.6652342677116394 -3.1819684505462646 11.072108268737793 0.6785944700241089 5.826280117034912 -18.968095779418945 2.55784010887146 -0.0 0.0 -0.0 -0.0 0.0 -0.0 -0.0 0.0 -0.0 103.3010025024414 50.351806640625 -52.11799240112305 -27.30150032043457 -43.151302337646484 89.78080749511719 -3.8481428623199463 -47.32489776611328 -8.768098831176758 -0.0 0.0 -0.0 -0.0 0.0 -0.0 -0.0 0.0 -0.0 7.730876445770264 5.474895000457764 0.41732463240623474 -0.0 0.0 -0.0 2.9054994583129883 0.9650753736495972 0.10300876200199127 -0.0 0.0 -0.0 10.278595924377441 0.7317469120025635 0.026285577565431595 -0.0 0.0 -0.0 2.221662759780884 -0.7335850596427917 -0.20831839740276337 -0.0 0.0 -0.0 -40.838096618652344 28.381799697875977 -38.333396911621094 16.439687728881836 -9.102198600769043 -30.606597900390625 1.093862533569336 28.111255645751953 -4.309627056121826 -0.0 0.0 -0.0 -0.0 0.0 -0.0 -0.0 0.0 -0.0 -7.730876445770264 5.474895000457764 -0.41732463240623474 -0.0 0.0 -0.0 -2.9054994583129883 0.9650753736495972 -0.10300876200199127 -0.0 0.0 -0.0 -10.278595924377441 0.7317469120025635 -0.026285577565431595 -0.0 0.0 -0.0 -2.221662759780884 -0.7335850596427917 0.20831839740276337 -0.0 0.0 -0.0 -10.393318176269531 14.030487060546875 0.10742934048175812 0.1020861268043518 30.080896377563477 2.4445526599884033 -11.579795837402344 -18.293996810913086 -36.83759689331055 -0.0 0.0 -0.0 82.26009368896484 -52.87398910522461 76.4655990600586 7.236741065979004 81.97164916992188 -6.884791374206543 0.16363276541233063 -5.177532196044922 -2.075330972671509
-0.20450000033633842 51.53350234031677 -0.03800000085902866 -13.370203018188477 -25.957103729248047 11.670103073120117 10.96130084991455 4.598491668701172 2.3623030185699463 2.9847733974456787 -6.221218109130859 0.6986176371574402 -2.9606740474700928 11.150395393371582 1.2511941194534302 5.734748363494873 -19.287500381469727 3.666445016860962 -0.0 0.0 -0.0 -0.0 0.0 -0.0 -0.0 0.0 -0.0 103.3539810180664 50.15737533569336 -52.086002349853516 -27.302799224853516 -43.147403717041016 89.77299499511719 -3.845954656600952 -47.31529998779297 -8.765118598937988 -0.0 0.0 -0.0 -0.0 0.0 -0.0 -0.0 0.0 -0.0 7.730876445770264 5.474895000457764 0.41732463240623474 -0.0 0.0 -0.0 2.9054994583129883 0.9650753736495972 0.10300876200199127 -0.0 0.0 -0.0 10.278595924377441 0.7317469120025635 0.026285577565431595 -0.0 0.0 -0.0 2.221662759780884 -0.7335850596427917 -0.20831839740276337 -0.0 0.0 -0.0 -40.773399353027344 28.33121681213379 -38.347896575927734 16.51447868347168 -9.174250602722168 -30.766294479370117 1.0538350343704224 28.00313949584961 -4.282191276550293 -0.0 0.0 -0.0 -0.0 0.0 -0.0 -0.0 0.0 -0.0 -7.730876445770264 5.474895000457764 -0.41732463240623474 -0.0 0.0 -0.0 -2.9054994583129883 0.9650753736495972 -0.10300876200199127 -0.0 0.0 -0.0 -10.278595924377441 0.7317469120025635 -0.026285577565431595 -0.0 0.0 -0.0 -2.221662759780884 -0.7335850596427917 0.20831839740276337 -0.0 0.0 -0.0 -10.481528282165527 13.790486335754395 0.09582502394914627 0.10145636647939682 30.366090774536133 2.464184522628784 -11.623473167419434 -18.274295806884766 -36.97529220581055 -0.0 0.0 -0.0 82.3501205444336 -53.069610595703125 76.29281616210938 7.27395486831665 82.04751586914062 -6.9704437255859375 0.3556096851825714 -5.360149383544922 -1.0428416728973389
-0.18823000013981073 51.441699266433716 -0.05800000035378616 -13.350996971130371 -26.025102615356445 11.722515106201172 11.02501106262207 4.838074207305908 2.4915030002593994 2.810818672180176 -6.3527913093566895 0.7353588938713074 -2.7347590923309326 11.178204536437988 1.703999638557434 5.5680437088012695 -19.571203231811523 4.527698040008545 -0.0 0.0 -0.0 -0.0 0.0 -0.0 -0.0 0.0 -0.0 103.41297149658203 50.0097770690918 -52.02909469604492 -27.3075008392334 -43.1328010559082 89.7448959350586 -3.864959239959717 -47.3149299621582 -8.77359390258789 -0.0 0.0 -0.0 -0.0 0.0 -0.0 -0.0 0.0 -0.0 7.730876445770264 5.474895000457764 0.41732463240623474 -0.0 0.0 -0.0 2.9054994583129883 0.9650753736495972 0.10300876200199127 -0.0 0.0 -0.0 10.278595924377441 0.7317469120025635 0.026285577565431595 -0.0 0.0 -0.0 2.221662759780884 -0.7335850596427917 -0.20831839740276337 -0.0 0.0 -0.0 -40.60310745239258 28.312891006469727 -38.38071060180664 16.615692138671875 -9.272104263305664 -30.98329734802246 1.0421704053878784 27.865140914916992 -4.257266998291016 -0.0 0.0 -0.0 -0.0 0.0 -0.0 -0.0 0.0 -0.0 -7.730876445770264 5.474895000457764 -0.41732463240623474 -0.0 0.0 -0.0 -2.9054994583129883 0.9650753736495972 -0.10300876200199127 -0.0 0.0 -0.0 -10.278595924377441 0.7317469120025635 -0.026285577565431595 -0.0 0.0 -0.0 -2.221662759780884 -0.7335850596427917 0.20831839740276337 -0.0 0.0 -0.0 -10.605785369873047 13.533803939819336 0.042628660798072815 0.10113358497619629 30.704692840576172 2.48940110206604 -11.675999641418457 -18.33740234375 -37.02899932861328 -0.0 0.0 -0.0 82.50218963623047 -53.29039764404297 76.12120056152344 7.362664222717285 82.17716217041016 -7.1188507080078125 0.6046980619430542 -5.626402854919434 0.2272837609052658
